<?xml version="1.0" standalone="no"?>
<!DOCTYPE svg PUBLIC "-//W3C//DTD SVG 20010904//EN"
 "http://www.w3.org/TR/2001/REC-SVG-20010904/DTD/svg10.dtd">
<svg version="1.0" xmlns="http://www.w3.org/2000/svg"
 width="389.000000pt" height="389.000000pt" viewBox="0 0 389.000000 389.000000"
 preserveAspectRatio="xMidYMid meet">
<metadata>
Created by potrace 1.14, written by Peter Selinger 2001-2017
</metadata>
<g transform="translate(0.000000,389.000000) scale(0.100000,-0.100000)"
fill="#000000" stroke="none">
<path d="M3070 3590 c-97 -26 -191 -73 -260 -131 -75 -64 -249 -236 -284 -281
-29 -39 -46 -48 -46 -25 0 73 -242 351 -326 375 -61 18 -85 15 -91 -9 -5 -18
-7 -18 -24 10 -30 50 -50 55 -184 47 -302 -18 -302 -18 -407 -69 -53 -26 -109
-47 -123 -47 -34 0 -88 -28 -200 -106 -61 -42 -97 -74 -105 -94 -13 -31 -28
-38 -46 -20 -5 5 -45 27 -89 49 -44 21 -112 64 -152 94 -40 30 -106 71 -149
91 -84 40 -218 81 -239 72 -25 -9 -38 -86 -32 -196 4 -86 10 -120 36 -185 55
-142 115 -219 206 -261 28 -13 104 -35 170 -50 175 -38 181 -41 189 -102 4
-33 16 -62 36 -87 29 -37 30 -40 28 -135 -3 -84 0 -101 16 -118 12 -14 17 -30
14 -47 l-5 -26 23 22 c37 34 131 235 145 306 12 63 7 401 -6 434 -7 17 -46 39
-71 39 -32 0 -130 -42 -169 -72 l-40 -31 39 41 c27 28 60 49 113 69 45 16 95
45 125 71 90 76 88 77 81 -31 -9 -135 16 -197 78 -197 16 0 77 14 136 30 58
17 126 30 150 30 52 0 119 -32 183 -88 l45 -40 -77 -74 c-43 -41 -78 -79 -78
-85 0 -5 -23 -36 -50 -67 -28 -32 -59 -75 -70 -96 -24 -48 -27 -142 -5 -193 8
-20 15 -49 15 -64 0 -15 12 -53 27 -83 24 -49 27 -65 25 -148 -2 -111 8 -135
76 -184 36 -26 57 -52 81 -100 24 -48 40 -68 64 -79 52 -23 48 -51 -17 -116
-31 -31 -55 -58 -53 -60 2 -2 31 14 63 35 86 56 188 155 236 229 22 35 43 61
46 59 9 -9 -47 -113 -92 -171 -80 -102 -77 -137 16 -180 91 -42 115 -68 139
-147 16 -55 25 -71 49 -83 38 -20 128 -19 226 1 154 32 238 5 334 -106 64 -74
93 -90 164 -90 120 0 136 30 81 148 -23 49 -35 90 -33 108 5 48 33 55 198 47
171 -7 209 1 240 51 38 62 19 125 -51 176 -23 16 -105 54 -183 85 -245 96
-258 105 -621 461 -27 27 -51 64 -66 104 -13 34 -39 79 -57 100 -55 65 -72
118 -83 252 -5 67 -11 131 -14 142 -6 21 -6 21 10 1 9 -11 18 -31 21 -45 3
-14 7 -35 10 -48 l5 -23 32 25 c60 46 117 64 222 71 194 13 372 62 453 125 56
43 122 113 153 161 73 115 119 287 119 452 0 64 -1 68 -27 78 -54 22 -211 21
-293 -1z m-2439 -205 c53 -28 112 -80 149 -132 l34 -48 -72 67 c-40 37 -99 81
-131 98 -33 16 -62 34 -65 39 -8 13 39 -1 85 -24z m2098 -112 c-42 -84 -64
-191 -54 -252 7 -39 7 -40 61 -47 30 -3 88 -1 129 5 72 11 168 48 160 62 -10
16 -74 18 -125 5 -55 -14 -55 -14 -32 5 30 24 85 39 145 39 26 0 47 2 47 4 0
32 -50 66 -97 66 -27 1 -27 1 -8 16 20 16 89 15 128 -1 15 -7 16 -4 7 21 -6
16 -21 39 -32 51 -42 45 9 36 59 -10 20 -18 23 -18 29 -3 3 9 4 31 0 49 l-6
32 20 -23 c48 -58 35 -138 -38 -234 -87 -114 -217 -161 -383 -138 -46 6 -88
15 -93 20 -5 5 -11 44 -13 87 -4 61 0 91 16 138 19 54 98 185 111 185 3 0 -11
-34 -31 -77z m-2244 -18 c6 -27 8 -28 19 -12 19 25 26 21 24 -15 -3 -27 1 -33
17 -34 48 -2 49 -3 32 -22 -24 -27 -22 -62 4 -62 11 0 29 -5 40 -10 21 -12 26
-35 6 -27 -8 3 -20 1 -28 -3 -19 -13 21 -53 85 -85 35 -17 43 -25 28 -25 -35
0 -114 44 -156 87 -49 50 -85 121 -97 192 -10 63 -2 115 12 71 4 -14 10 -38
14 -55z m1820 -265 c19 -21 13 -42 -7 -22 -18 18 -64 15 -108 -7 -51 -25 -51
-19 2 19 48 35 87 38 113 10z m-1280 -73 l19 -32 -33 28 c-18 15 -42 27 -53
27 -17 0 -18 3 -8 14 16 21 52 3 75 -37z m1255 -27 c11 -6 24 -20 31 -31 9
-19 9 -19 -10 -10 -11 6 -37 11 -59 11 -40 0 -65 -14 -131 -74 -23 -21 -30
-25 -23 -11 6 11 28 36 49 56 72 68 103 81 143 59z m-1288 -37 c25 -27 51 -78
68 -135 13 -44 4 -33 -24 28 -26 57 -77 114 -102 114 -8 0 -14 5 -14 10 0 20
47 9 72 -17z m-36 -123 c10 -25 26 -44 45 -52 31 -14 38 -28 15 -28 -39 0 -65
29 -80 93 -9 40 2 33 20 -13z m1219 0 c0 -18 -6 -26 -23 -28 -13 -2 -25 3 -28
12 -10 26 4 48 28 44 17 -2 23 -10 23 -28z m-1147 -3 c4 -20 -25 -34 -40 -19
-15 15 -1 44 19 40 10 -2 19 -11 21 -21z m1223 -36 c-25 -48 -64 -65 -107 -46
l-29 13 44 1 c37 1 49 6 75 36 17 19 32 35 34 35 1 0 -7 -18 -17 -39z"/>
<path d="M1227 2254 c-4 -4 -78 -9 -165 -10 -178 -2 -255 -21 -290 -72 -28
-39 -28 -250 -1 -339 15 -53 17 -71 7 -117 -6 -30 -7 -71 -4 -91 6 -30 14 -39
44 -52 34 -15 49 -15 172 0 157 19 200 14 360 -48 113 -44 184 -48 247 -16 62
31 77 72 70 190 -4 82 -13 120 -61 260 -58 172 -90 228 -155 272 -29 20 -50
25 -125 27 -50 2 -94 0 -99 -4z m242 -247 c1 -88 -23 -140 -73 -157 -42 -13
-72 -1 -86 35 -17 45 2 84 62 121 21 14 47 43 59 66 19 38 23 41 30 23 4 -11
8 -51 8 -88z m-644 8 c33 -58 32 -108 -4 -113 -13 -2 -28 2 -32 10 -12 18 -11
148 0 148 5 0 21 -20 36 -45z"/>
<path d="M1018 1533 c-27 -4 -27 -5 -14 -31 8 -15 37 -49 65 -75 109 -102 228
-125 351 -66 70 33 130 74 130 90 0 5 -29 9 -65 9 -52 0 -85 8 -158 36 -79 32
-105 37 -187 39 -52 2 -107 1 -122 -2z"/>
<path d="M1458 1334 c-37 -19 -36 -46 3 -122 44 -85 47 -139 16 -275 -36 -157
-57 -263 -57 -292 0 -49 21 -73 88 -102 56 -24 67 -33 82 -68 10 -22 21 -74
24 -115 10 -120 63 -180 157 -180 41 0 51 4 73 31 39 47 39 139 -1 242 l-27
68 22 68 c25 75 27 116 11 158 -19 47 -11 90 32 181 39 81 42 94 47 189 l4
102 -29 30 c-21 20 -46 32 -89 41 -32 6 -92 22 -132 36 -83 28 -182 32 -224 8z"/>
<path d="M2587 1151 c-80 -16 -123 -81 -114 -169 5 -46 32 -84 79 -108 16 -8
30 -26 34 -42 12 -58 37 -113 71 -159 44 -58 52 -64 78 -61 18 3 20 11 20 82
l0 79 42 14 c62 21 93 63 93 125 0 45 -4 54 -37 84 -20 19 -40 34 -43 34 -3 0
-19 22 -35 50 -38 65 -100 88 -188 71z"/>
<path d="M2008 807 c-37 -29 -58 -84 -58 -149 -1 -31 -7 -61 -15 -72 -25 -32
-19 -81 12 -106 14 -11 31 -19 36 -17 6 2 22 33 37 69 15 36 41 89 58 117 69
112 16 230 -70 158z"/>
</g>
</svg>
